<?xml version="1.0" standalone="no"?>
<!DOCTYPE svg PUBLIC "-//W3C//DTD SVG 20010904//EN"
 "http://www.w3.org/TR/2001/REC-SVG-20010904/DTD/svg10.dtd">
<svg version="1.0" xmlns="http://www.w3.org/2000/svg"
 width="200" height="50" viewBox="0 0 1088.000000 241.000000"
 preserveAspectRatio="xMidYMid meet" class="fill-current">

<g transform="translate(0.000000,241.000000) scale(0.100000,-0.100000)" stroke="none">
<path d="M1015 2390 c-225 -31 -463 -151 -636 -322 -179 -177 -285 -372 -343
-628 -47 -206 -21 -489 64 -692 160 -385 499 -658 900 -723 127 -20 225 -19
363 5 292 50 549 212 744 471 200 266 277 623 204 949 -38 167 -111 335 -197
450 -190 252 -435 418 -708 476 -88 19 -297 26 -391 14z m103 -349 c2 -156 -1
-228 -9 -237 -9 -11 -48 -14 -174 -14 -191 0 -195 2 -175 78 18 65 62 162 98
214 68 99 183 192 232 186 l25 -3 3 -224z m226 190 c97 -67 181 -185 227 -320
23 -67 24 -107 3 -115 -31 -12 -309 -7 -322 6 -13 13 -18 439 -5 451 15 15 57
5 97 -22z m-547 -43 c-7 -13 -31 -54 -54 -93 -23 -38 -58 -119 -77 -179 -20
-60 -41 -113 -48 -118 -17 -10 -279 -10 -296 0 -22 14 0 51 82 139 132 142
312 266 393 272 9 1 9 -4 0 -21z m883 -36 c105 -62 186 -129 264 -216 78 -87
101 -126 83 -138 -21 -14 -293 -10 -305 5 -6 6 -28 68 -51 137 -22 69 -52 141
-65 161 -14 20 -34 52 -45 72 l-20 36 32 -6 c18 -3 66 -26 107 -51z m-1090
-488 c11 -12 10 -38 -3 -143 -9 -70 -17 -146 -17 -168 0 -23 -4 -53 -10 -67
l-10 -26 -198 0 c-214 0 -222 2 -222 52 0 77 65 315 96 349 16 17 32 19 184
19 139 0 170 -3 180 -16z m518 4 c17 -17 17 -379 0 -396 -13 -13 -381 -18
-412 -6 -20 8 -21 93 -1 258 10 82 19 124 31 137 16 17 33 19 194 19 123 0
180 -4 188 -12z m516 -11 c17 -25 46 -227 46 -316 0 -31 -5 -62 -12 -69 -17
-17 -389 -17 -406 0 -17 17 -17 379 0 396 8 8 64 12 185 12 168 0 173 -1 187
-23z m520 -42 c37 -77 86 -307 70 -333 -10 -15 -33 -17 -209 -20 -126 -1 -202
1 -210 8 -8 6 -15 46 -18 98 -2 48 -11 130 -18 184 -18 135 -27 129 185 126
l171 -3 29 -60z m-1586 -477 c5 -7 12 -67 16 -133 4 -66 12 -147 17 -179 6
-32 8 -70 5 -82 l-6 -24 -174 0 c-155 0 -175 2 -189 18 -53 59 -122 390 -84
405 6 3 100 6 208 6 146 1 199 -2 207 -11z m550 0 c14 -14 17 -384 4 -406 -7
-9 -53 -12 -198 -10 l-189 3 -13 40 c-7 21 -18 113 -24 203 -10 140 -10 165 3
173 22 14 403 11 417 -3z m546 6 c19 -7 21 -81 6 -235 -13 -127 -25 -175 -46
-183 -31 -12 -349 -7 -362 6 -17 17 -17 389 0 406 13 13 371 18 402 6z m556
-9 c24 -29 -19 -255 -68 -355 l-27 -55 -180 0 -180 0 1 45 c1 25 8 116 16 203
10 115 18 161 29 168 7 5 100 9 205 9 159 0 194 -3 204 -15z m-1583 -537 c6
-7 27 -63 47 -125 21 -62 54 -139 76 -171 21 -33 41 -69 44 -80 6 -19 4 -20
-21 -13 -97 28 -241 130 -358 254 -87 91 -107 122 -88 140 13 13 290 8 300 -5z
m481 0 c13 -13 18 -411 6 -442 -13 -34 -75 -12 -157 57 -78 64 -164 204 -191
310 -23 87 -22 87 167 87 114 0 167 -4 175 -12z m471 3 c23 -14 5 -86 -45
-189 -69 -139 -203 -269 -267 -260 -22 3 -22 6 -25 217 -2 149 1 218 9 227 9
11 46 14 163 14 83 0 157 -4 165 -9z m438 1 c22 -14 -16 -73 -109 -166 -117
-116 -259 -213 -340 -230 -26 -6 -26 -6 -11 24 8 17 29 55 48 85 18 31 50 104
71 163 20 59 42 113 47 120 11 13 273 18 294 4z"/>
<path d="M7783 1818 c-46 -22 -48 -114 -3 -138 36 -20 87 -12 109 16 25 31 26
55 6 93 -21 42 -64 52 -112 29z"/>
<path d="M4710 1805 c-105 -30 -164 -77 -201 -160 -32 -70 -29 -142 8 -214 37
-72 96 -109 253 -157 254 -79 280 -97 280 -200 0 -57 -3 -67 -32 -100 -45 -51
-82 -64 -185 -64 -111 0 -152 18 -220 95 -48 54 -54 57 -86 51 -82 -15 -86
-52 -11 -134 138 -154 436 -175 588 -40 91 79 115 197 64 309 -41 89 -104 128
-302 184 -70 19 -146 45 -167 56 -101 51 -103 170 -6 243 20 15 47 22 98 24
93 6 147 -16 221 -86 l58 -55 45 17 c27 11 45 24 45 33 0 51 -104 152 -189
184 -74 28 -189 34 -261 14z"/>
<path d="M3877 1788 c-17 -14 -25 -33 -127 -303 -210 -557 -240 -638 -240
-650 0 -29 86 -35 119 -7 11 9 34 55 51 102 52 142 27 130 265 130 161 0 206
-3 218 -14 7 -8 28 -56 46 -107 18 -52 42 -102 53 -111 24 -22 100 -24 117 -4
9 10 -30 119 -169 482 -100 258 -188 475 -197 482 -9 6 -40 12 -68 12 -28 0
-59 -6 -68 -12z m160 -384 c34 -89 63 -175 65 -190 l3 -29 -157 -3 -158 -3 0
27 c0 31 102 322 133 376 l20 38 17 -28 c9 -15 44 -100 77 -188z"/>
<path d="M5716 1784 c-9 -8 -16 -28 -16 -44 0 -52 19 -60 150 -60 65 0 125 -3
134 -6 14 -5 16 -52 16 -419 0 -462 -3 -445 70 -445 73 0 70 -17 70 439 0 303
3 410 12 419 8 8 54 12 139 12 141 0 159 7 159 60 0 60 2 60 -375 60 -299 0
-346 -2 -359 -16z"/>
<path d="M10132 1783 c-12 -11 -64 -133 -127 -298 -59 -154 -138 -360 -176
-458 -38 -98 -69 -185 -69 -193 0 -19 47 -29 76 -15 30 13 20 -9 209 486 197
518 183 474 165 485 -23 15 -56 12 -78 -7z"/>
<path d="M2810 1477 c-208 -104 -246 -126 -254 -149 -22 -64 -11 -73 263 -210
193 -97 258 -125 268 -116 17 14 17 69 0 93 -8 10 -90 57 -183 104 -105 54
-169 92 -169 101 0 9 63 47 168 100 92 47 172 92 177 100 19 30 9 100 -14 100
-6 0 -121 -55 -256 -123z"/>
<path d="M10316 1584 c-12 -31 -6 -63 17 -87 12 -13 87 -55 167 -92 160 -75
192 -97 172 -117 -7 -7 -88 -51 -180 -98 -140 -71 -168 -89 -175 -113 -11 -35
-1 -77 18 -77 8 0 129 56 269 124 254 124 255 124 261 160 5 25 3 43 -8 59
-15 23 -489 257 -520 257 -8 0 -18 -7 -21 -16z"/>
<path d="M7510 1518 c-19 -5 -63 -29 -96 -53 l-61 -44 -9 42 c-11 49 -45 69
-89 49 l-25 -12 0 -329 c0 -368 -1 -361 68 -361 68 0 66 -3 72 232 5 205 6
216 31 263 34 66 77 95 143 95 28 0 57 4 65 9 15 10 28 96 15 104 -20 12 -81
15 -114 5z"/>
<path d="M8358 1510 c-31 -9 -69 -26 -85 -38 -45 -32 -65 -32 -74 2 -10 36
-24 46 -66 46 -63 0 -63 3 -63 -355 0 -362 -1 -355 70 -355 68 0 70 6 70 233
1 185 2 207 23 257 30 74 69 100 151 100 44 0 70 -6 94 -20 57 -35 65 -68 70
-318 5 -249 6 -252 72 -252 66 0 70 10 70 188 0 179 -14 327 -34 375 -23 56
-73 105 -129 125 -80 30 -107 32 -169 12z"/>
<path d="M9067 1520 c-53 -14 -92 -35 -138 -77 -51 -46 -77 -96 -95 -187 -47
-224 85 -410 292 -411 61 0 79 5 134 33 73 39 80 35 80 -46 0 -176 -187 -254
-334 -139 -47 37 -124 49 -145 23 -12 -14 -10 -22 13 -56 58 -87 147 -125 296
-124 129 0 214 46 262 138 40 79 48 153 48 493 0 279 -2 324 -16 337 -31 32
-78 15 -109 -38 -9 -17 -16 -15 -80 18 -76 39 -146 51 -208 36z m205 -142 c46
-35 68 -98 68 -193 0 -109 -35 -186 -100 -220 -62 -32 -176 -11 -221 41 -40
46 -53 88 -54 174 0 73 4 93 26 135 14 28 41 61 60 73 30 21 44 23 110 20 64
-2 81 -7 111 -30z"/>
<path d="M6454 1503 c-15 -15 -16 -40 -11 -253 4 -182 9 -247 22 -290 36 -115
154 -185 273 -161 52 10 65 16 137 54 29 16 30 16 57 -13 18 -21 36 -30 57
-30 61 0 61 -1 61 355 0 362 1 355 -69 355 -69 0 -71 -7 -71 -256 0 -208 -1
-222 -22 -264 -32 -61 -66 -83 -136 -88 -75 -5 -114 14 -144 71 -22 39 -23 56
-26 272 -3 193 -6 233 -19 247 -21 23 -86 24 -109 1z"/>
<path d="M7776 1504 c-14 -13 -16 -58 -16 -339 0 -362 -1 -355 69 -355 72 0
71 -4 71 358 0 359 1 352 -70 352 -22 0 -45 -7 -54 -16z"/>
<path d="M5346 1224 c-9 -8 -16 -26 -16 -39 0 -50 18 -55 200 -55 182 0 200 5
200 55 0 50 -18 55 -200 55 -140 0 -171 -3 -184 -16z"/>
</g>
</svg>
